<svg width="55" height="12" viewBox="0 0 55 12" fill="none" xmlns="http://www.w3.org/2000/svg">
<path d="M50.6561 6.56V11.04H50.0481V6.56L46.1281 0H46.8321L50.3841 5.952L53.8721 0H54.5761L50.6561 6.56Z" fill="white"/>
<path d="M44.576 8.048C44.752 9.648 44.976 10.368 45.312 11.04H44.624C44.368 10.336 44.144 9.68 43.968 8.144C43.824 6.928 43.296 5.872 42.016 5.808C41.68 5.792 41.312 5.792 41.056 5.792H38.608V11.04H38V0H40.912C41.472 0 41.952 0.0160007 42.464 0.0799999C44.144 0.288 45.152 1.184 45.152 2.832C45.152 4.256 44.256 5.232 42.96 5.504C43.936 5.84 44.448 6.832 44.576 8.048ZM38.608 5.264H41.072C41.504 5.264 41.776 5.264 42.24 5.232C43.616 5.12 44.496 4.224 44.496 2.88C44.496 1.504 43.712 0.784 42.32 0.608001C41.872 0.544001 41.472 0.528001 40.912 0.528001H38.608V5.264Z" fill="white"/>
<path d="M35.3745 0V7.216C35.3745 7.488 35.3585 7.824 35.3265 8.272C35.1985 10 33.9985 11.264 31.6625 11.264C29.3425 11.264 28.1425 10 28.0145 8.272C27.9825 7.824 27.9665 7.488 27.9665 7.216V0H28.5745V7.232C28.5745 7.6 28.5905 7.904 28.6225 8.224C28.7505 9.616 29.6785 10.736 31.6625 10.736C33.6625 10.736 34.5905 9.616 34.7185 8.224C34.7505 7.904 34.7665 7.6 34.7665 7.232V0H35.3745Z" fill="white"/>
<path d="M22.2871 5.488L26.3191 11.04H25.5511L21.9351 5.92L18.3191 11.04H17.5831L21.5511 5.52L17.8711 0H18.5591L21.9351 5.056L25.5991 0H26.3511L22.2871 5.488Z" fill="white"/>
<path d="M16.0776 0V7.216C16.0776 7.488 16.0616 7.824 16.0296 8.272C15.9016 10 14.7016 11.264 12.3656 11.264C10.0456 11.264 8.84562 10 8.71762 8.272C8.68562 7.824 8.66962 7.488 8.66962 7.216V0H9.27762V7.232C9.27762 7.6 9.29362 7.904 9.32562 8.224C9.45362 9.616 10.3816 10.736 12.3656 10.736C14.3656 10.736 15.2936 9.616 15.4216 8.224C15.4536 7.904 15.4696 7.6 15.4696 7.232V0H16.0776Z" fill="white"/>
<path d="M6.992 10.512V11.04H0V0H0.608V10.512H6.992Z" fill="white"/>
</svg>
